Roboto Serif Text-Black.ufo
<glyph name="exclam" format="2">
  <advance width="315"/>
  <unicode hex="0021"/>
  <outline>
    <contour>
      <point x="260" y="716" type="curve"/>
      <point x="55" y="716" type="line"/>
      <point x="55" y="550"/>
      <point x="94" y="450"/>
      <point x="94" y="250" type="curve"/>
      <point x="222" y="250" type="line"/>
      <point x="222" y="450"/>
      <point x="260" y="551"/>
    </contour>
    <component base="period" xOffset="-6.75"/>
  </outline>
</glyph>
<glyph name="plus" format="2">
  <advance width="560"/>
  <unicode hex="002B"/>
  <outline>
    <contour>
      <point x="214" y="566" type="line"/>
      <point x="214" y="402" type="line"/>
      <point x="60" y="402" type="line"/>
      <point x="60" y="280" type="line"/>
      <point x="214" y="280" type="line"/>
      <point x="214" y="116" type="line"/>
      <point x="344" y="116" type="line"/>
      <point x="344" y="280" type="line"/>
      <point x="500" y="280" type="line"/>
      <point x="500" y="402" type="line"/>
      <point x="344" y="402" type="line"/>
      <point x="344" y="566" type="line"/>
    </contour>
  </outline>
</glyph>
<glyph name="period" format="2">
  <advance width="328"/>
  <unicode hex="002E"/>
  <outline>
    <contour>
      <point x="277" y="89" type="curve" smooth="yes"/>
      <point x="277" y="150"/>
      <point x="235" y="192"/>
      <point x="164" y="192" type="curve" smooth="yes"/>
      <point x="93" y="192"/>
      <point x="51" y="150"/>
      <point x="51" y="89" type="curve" smooth="yes"/>
      <point x="51" y="28"/>
      <point x="93" y="-14"/>
      <point x="164" y="-14" type="curve" smooth="yes"/>
      <point x="235" y="-14"/>
      <point x="277" y="28"/>
    </contour>
  </outline>
</glyph>
<glyph name="zero" format="2">
  <advance width="560"/>
  <unicode hex="0030"/>
  <outline>
    <contour>
      <point x="280" y="-11" type="curve" smooth="yes"/>
      <point x="434" y="-11"/>
      <point x="542" y="110"/>
      <point x="542" y="304" type="curve" smooth="yes"/>
      <point x="542" y="498"/>
      <point x="433" y="619"/>
      <point x="280" y="619" type="curve" smooth="yes"/>
      <point x="127" y="619"/>
      <point x="18" y="498"/>
      <point x="18" y="304" type="curve" smooth="yes"/>
      <point x="18" y="110"/>
      <point x="126" y="-11"/>
    </contour>
    <contour>
      <point x="280" y="75" type="curve" smooth="yes"/>
      <point x="234" y="75"/>
      <point x="215" y="127"/>
      <point x="215" y="304" type="curve" smooth="yes"/>
      <point x="215" y="481"/>
      <point x="234" y="533"/>
      <point x="280" y="533" type="curve" smooth="yes"/>
      <point x="326" y="533"/>
      <point x="345" y="481"/>
      <point x="345" y="304" type="curve" smooth="yes"/>
      <point x="345" y="127"/>
      <point x="326" y="75"/>
    </contour>
  </outline>
</glyph>
<glyph name="two" format="2">
  <advance width="560"/>
  <unicode hex="0032"/>
  <outline>
    <contour>
      <point x="323" y="138" type="curve" smooth="yes"/>
      <point x="167" y="138" type="line"/>
      <point x="333" y="206"/>
      <point x="509" y="297"/>
      <point x="509" y="439" type="curve"/>
      <point x="509" y="551"/>
      <point x="426" y="618"/>
      <point x="268" y="618" type="curve" smooth="yes"/>
      <point x="158" y="618"/>
      <point x="74" y="579"/>
      <point x="33" y="540" type="curve"/>
      <point x="33" y="415" type="line"/>
      <point x="184" y="415" type="line"/>
      <point x="184" y="513" type="line"/>
      <point x="200" y="524"/>
      <point x="220" y="532"/>
      <point x="243" y="532" type="curve" smooth="yes"/>
      <point x="291" y="532"/>
      <point x="315" y="503"/>
      <point x="315" y="440" type="curve"/>
      <point x="315" y="302"/>
      <point x="187" y="242"/>
      <point x="26" y="152" type="curve"/>
      <point x="26" y="0" type="line"/>
      <point x="526" y="0" type="line"/>
      <point x="526" y="230" type="line"/>
      <point x="442" y="230" type="line"/>
      <point x="434" y="178" type="line" smooth="yes"/>
      <point x="429" y="142"/>
      <point x="400" y="138"/>
    </contour>
  </outline>
</glyph>
<glyph name="six" format="2">
  <advance width="560"/>
  <unicode hex="0036"/>
  <outline>
    <contour>
      <point x="476" y="658" type="curve"/>
      <point x="464" y="740" type="line"/>
      <point x="200" y="697"/>
      <point x="20" y="513"/>
      <point x="20" y="295" type="curve" smooth="yes"/>
      <point x="20" y="84"/>
      <point x="129" y="-10"/>
      <point x="289" y="-10" type="curve" smooth="yes"/>
      <point x="438" y="-10"/>
      <point x="540" y="83"/>
      <point x="540" y="236" type="curve" smooth="yes"/>
      <point x="540" y="376"/>
      <point x="457" y="453"/>
      <point x="338" y="453" type="curve" smooth="yes"/>
      <point x="291" y="453"/>
      <point x="256" y="439"/>
      <point x="230" y="420" type="curve"/>
      <point x="265" y="549"/>
      <point x="356" y="630"/>
    </contour>
    <contour>
      <point x="213" y="288" type="curve" smooth="yes"/>
      <point x="213" y="303"/>
      <point x="213" y="317"/>
      <point x="214" y="331" type="curve"/>
      <point x="234" y="355"/>
      <point x="256" y="370"/>
      <point x="284" y="370" type="curve" smooth="yes"/>
      <point x="331" y="370"/>
      <point x="344" y="314"/>
      <point x="344" y="229" type="curve" smooth="yes"/>
      <point x="344" y="124"/>
      <point x="325" y="72"/>
      <point x="284" y="72" type="curve" smooth="yes"/>
      <point x="240" y="72"/>
      <point x="213" y="122"/>
    </contour>
  </outline>
</glyph>
<glyph name="nine" format="2">
  <advance width="560"/>
  <unicode hex="0039"/>
  <outline>
    <contour>
      <point x="72" y="-20" type="curve"/>
      <point x="85" y="-103" type="line"/>
      <point x="359" y="-77"/>
      <point x="540" y="89"/>
      <point x="540" y="328" type="curve" smooth="yes"/>
      <point x="540" y="528"/>
      <point x="440" y="619"/>
      <point x="275" y="619" type="curve" smooth="yes"/>
      <point x="123" y="619"/>
      <point x="20" y="530"/>
      <point x="20" y="388" type="curve" smooth="yes"/>
      <point x="20" y="250"/>
      <point x="106" y="177"/>
      <point x="225" y="177" type="curve" smooth="yes"/>
      <point x="273" y="177"/>
      <point x="308" y="191"/>
      <point x="334" y="212" type="curve"/>
      <point x="301" y="68"/>
      <point x="206" y="-4"/>
    </contour>
    <contour>
      <point x="216" y="393" type="curve" smooth="yes"/>
      <point x="216" y="491"/>
      <point x="237" y="536"/>
      <point x="279" y="536" type="curve" smooth="yes"/>
      <point x="322" y="536"/>
      <point x="347" y="492"/>
      <point x="347" y="336" type="curve" smooth="yes"/>
      <point x="347" y="323"/>
      <point x="347" y="310"/>
      <point x="346" y="298" type="curve"/>
      <point x="327" y="274"/>
      <point x="305" y="260"/>
      <point x="279" y="260" type="curve" smooth="yes"/>
      <point x="230" y="260"/>
      <point x="216" y="310"/>
    </contour>
  </outline>
</glyph>
<glyph name="question" format="2">
  <advance width="582"/>
  <unicode hex="003F"/>
  <outline>
    <contour>
      <point x="211" y="387" type="curve"/>
      <point x="211" y="250" type="line"/>
      <point x="322" y="250" type="line"/>
      <point x="322" y="334" type="line"/>
      <point x="426" y="361"/>
      <point x="549" y="412"/>
      <point x="549" y="539" type="curve" smooth="yes"/>
      <point x="549" y="648"/>
      <point x="463" y="726"/>
      <point x="287" y="726" type="curve" smooth="yes"/>
      <point x="158" y="726"/>
      <point x="70" y="678"/>
      <point x="38" y="644" type="curve"/>
      <point x="38" y="530" type="line"/>
      <point x="197" y="530" type="line"/>
      <point x="197" y="617" type="line"/>
      <point x="217" y="629"/>
      <point x="241" y="636"/>
      <point x="266" y="636" type="curve" smooth="yes"/>
      <point x="326" y="636"/>
      <point x="354" y="601"/>
      <point x="354" y="550" type="curve" smooth="yes"/>
      <point x="354" y="470"/>
      <point x="297" y="419"/>
    </contour>
    <component base="period" xOffset="102.75" yOffset="-0.25"/>
  </outline>
</glyph>
<glyph name="A" format="2">
  <advance width="730"/>
  <unicode hex="0041"/>
  <anchor x="349.0" y="721.0" name="top"/>
  <anchor x="553.0" y="0.0" name="right"/>
  <anchor x="349.0" y="0.0" name="bottom"/>
  <outline>
    <contour>
      <point x="216" y="73" type="line"/>
      <point x="204" y="73" type="line" smooth="yes"/>
      <point x="176" y="73"/>
      <point x="148" y="80"/>
      <point x="148" y="91" type="curve"/>
      <point x="191" y="226" type="line"/>
      <point x="403" y="226" type="line"/>
      <point x="448" y="83" type="line"/>
      <point x="448" y="76"/>
      <point x="418" y="73"/>
      <point x="390" y="73" type="curve" smooth="yes"/>
      <point x="375" y="73" type="line"/>
      <point x="375" y="0" type="line"/>
      <point x="720" y="0" type="line"/>
      <point x="720" y="73" type="line"/>
      <point x="716" y="73" type="line" smooth="yes"/>
      <point x="690" y="73"/>
      <point x="674" y="78"/>
      <point x="667" y="101" type="curve" smooth="yes"/>
      <point x="469" y="710" type="line"/>
      <point x="256" y="710" type="line"/>
      <point x="64" y="116" type="line" smooth="yes"/>
      <point x="54" y="82"/>
      <point x="40" y="73"/>
      <point x="14" y="73" type="curve" smooth="yes"/>
      <point x="10" y="73" type="line"/>
      <point x="10" y="0" type="line"/>
      <point x="216" y="0" type="line"/>
    </contour>
    <contour>
      <point x="217" y="308" type="line"/>
      <point x="297" y="559" type="line"/>
      <point x="377" y="308" type="line"/>
    </contour>
  </outline>
</glyph>
<glyph name="C" format="2">
  <advance width="696"/>
  <unicode hex="0043"/>
  <outline>
    <contour>
      <point x="411" y="630" type="curve" smooth="yes"/>
      <point x="489" y="630"/>
      <point x="530" y="571"/>
      <point x="558" y="482" type="curve"/>
      <point x="661" y="482" type="line"/>
      <point x="661" y="710" type="line"/>
      <point x="574" y="710" type="line"/>
      <point x="565" y="631" type="line"/>
      <point x="527" y="686"/>
      <point x="471" y="720"/>
      <point x="379" y="720" type="curve" smooth="yes"/>
      <point x="191" y="720"/>
      <point x="33" y="574"/>
      <point x="33" y="355" type="curve" smooth="yes"/>
      <point x="33" y="137"/>
      <point x="182" y="-10"/>
      <point x="394" y="-10" type="curve" smooth="yes"/>
      <point x="554" y="-10"/>
      <point x="641" y="90"/>
      <point x="670" y="236" type="curve"/>
      <point x="592" y="267" type="line"/>
      <point x="570" y="157"/>
      <point x="512" y="80"/>
      <point x="423" y="80" type="curve" smooth="yes"/>
      <point x="315" y="80"/>
      <point x="260" y="182"/>
      <point x="260" y="355" type="curve" smooth="yes"/>
      <point x="260" y="521"/>
      <point x="314" y="630"/>
    </contour>
  </outline>
</glyph>
<glyph name="E" format="2">
  <advance width="648"/>
  <unicode hex="0045"/>
  <anchor x="379.0" y="741.0" name="top"/>
  <anchor x="443.0" y="0.0" name="right"/>
  <anchor x="379.0" y="0.0" name="bottom"/>
  <outline>
    <contour>
      <point x="616" y="230" type="line"/>
      <point x="521" y="230" type="line"/>
      <point x="510" y="127" type="line" smooth="yes"/>
      <point x="507" y="91"/>
      <point x="476" y="84"/>
      <point x="398" y="84" type="curve" smooth="yes"/>
      <point x="310" y="84" type="line"/>
      <point x="310" y="326" type="line"/>
      <point x="502" y="314" type="line"/>
      <point x="502" y="412" type="line"/>
      <point x="310" y="401" type="line"/>
      <point x="310" y="626" type="line"/>
      <point x="392" y="626" type="line" smooth="yes"/>
      <point x="451" y="626"/>
      <point x="486" y="619"/>
      <point x="489" y="583" type="curve" smooth="yes"/>
      <point x="495" y="504" type="line"/>
      <point x="588" y="504" type="line"/>
      <point x="588" y="710" type="line"/>
      <point x="28" y="710" type="line"/>
      <point x="28" y="637" type="line"/>
      <point x="38" y="637" type="line" smooth="yes"/>
      <point x="69" y="637"/>
      <point x="92" y="630"/>
      <point x="92" y="601" type="curve" smooth="yes"/>
      <point x="92" y="109" type="line" smooth="yes"/>
      <point x="92" y="80"/>
      <point x="69" y="73"/>
      <point x="38" y="73" type="curve" smooth="yes"/>
      <point x="28" y="73" type="line"/>
      <point x="28" y="0" type="line"/>
      <point x="616" y="0" type="line"/>
    </contour>
  </outline>
</glyph>
<glyph name="F" format="2">
  <advance width="622"/>
  <unicode hex="0046"/>
  <outline>
    <contour>
      <point x="310" y="626" type="line"/>
      <point x="397" y="626" type="line" smooth="yes"/>
      <point x="455" y="626"/>
      <point x="490" y="619"/>
      <point x="494" y="583" type="curve" smooth="yes"/>
      <point x="500" y="504" type="line"/>
      <point x="594" y="504" type="line"/>
      <point x="594" y="710" type="line"/>
      <point x="28" y="710" type="line"/>
      <point x="28" y="637" type="line"/>
      <point x="38" y="637" type="line" smooth="yes"/>
      <point x="69" y="637"/>
      <point x="92" y="630"/>
      <point x="92" y="601" type="curve" smooth="yes"/>
      <point x="92" y="109" type="line" smooth="yes"/>
      <point x="92" y="80"/>
      <point x="69" y="73"/>
      <point x="38" y="73" type="curve" smooth="yes"/>
      <point x="28" y="73" type="line"/>
      <point x="28" y="0" type="line"/>
      <point x="392" y="0" type="line"/>
      <point x="392" y="73" type="line"/>
      <point x="375" y="73" type="line" smooth="yes"/>
      <point x="346" y="73"/>
      <point x="310" y="74"/>
      <point x="310" y="109" type="curve" smooth="yes"/>
      <point x="310" y="319" type="line"/>
      <point x="508" y="308" type="line"/>
      <point x="508" y="405" type="line"/>
      <point x="310" y="394" type="line"/>
    </contour>
  </outline>
</glyph>
<glyph name="H" format="2">
  <advance width="825"/>
  <unicode hex="0048"/>
  <anchor x="417.0" y="741.0" name="top"/>
  <anchor x="417.0" y="0.0" name="bottom"/>
  <outline>
    <contour>
      <point x="28" y="0" type="line"/>
      <point x="373" y="0" type="line"/>
      <point x="373" y="73" type="line"/>
      <point x="364" y="73" type="line" smooth="yes"/>
      <point x="340" y="73"/>
      <point x="310" y="76"/>
      <point x="310" y="83" type="curve" smooth="yes"/>
      <point x="310" y="324" type="line"/>
      <point x="515" y="324" type="line"/>
      <point x="515" y="83" type="line" smooth="yes"/>
      <point x="515" y="76"/>
      <point x="485" y="73"/>
      <point x="460" y="73" type="curve" smooth="yes"/>
      <point x="452" y="73" type="line"/>
      <point x="452" y="0" type="line"/>
      <point x="797" y="0" type="line"/>
      <point x="797" y="73" type="line"/>
      <point x="787" y="73" type="line" smooth="yes"/>
      <point x="756" y="73"/>
      <point x="733" y="80"/>
      <point x="733" y="109" type="curve" smooth="yes"/>
      <point x="733" y="601" type="line" smooth="yes"/>
      <point x="733" y="630"/>
      <point x="756" y="637"/>
      <point x="787" y="637" type="curve" smooth="yes"/>
      <point x="797" y="637" type="line"/>
      <point x="797" y="710" type="line"/>
      <point x="452" y="710" type="line"/>
      <point x="452" y="637" type="line"/>
      <point x="460" y="637" type="line" smooth="yes"/>
      <point x="485" y="637"/>
      <point x="515" y="634"/>
      <point x="515" y="627" type="curve" smooth="yes"/>
      <point x="515" y="408" type="line"/>
      <point x="310" y="408" type="line"/>
      <point x="310" y="627" type="line" smooth="yes"/>
      <point x="310" y="634"/>
      <point x="340" y="637"/>
      <point x="364" y="637" type="curve" smooth="yes"/>
      <point x="373" y="637" type="line"/>
      <point x="373" y="710" type="line"/>
      <point x="28" y="710" type="line"/>
      <point x="28" y="637" type="line"/>
      <point x="38" y="637" type="line" smooth="yes"/>
      <point x="69" y="637"/>
      <point x="92" y="630"/>
      <point x="92" y="601" type="curve" smooth="yes"/>
      <point x="92" y="109" type="line" smooth="yes"/>
      <point x="92" y="80"/>
      <point x="69" y="73"/>
      <point x="38" y="73" type="curve" smooth="yes"/>
      <point x="28" y="73" type="line"/>
    </contour>
  </outline>
</glyph>
<glyph name="I" format="2">
  <advance width="401"/>
  <unicode hex="0049"/>
  <anchor x="188.0" y="741.0" name="top"/>
  <anchor x="247.0" y="0.0" name="right"/>
  <anchor x="188.0" y="0.0" name="bottom"/>
  <outline>
    <contour>
      <point x="92" y="109" type="line" smooth="yes"/>
      <point x="92" y="80"/>
      <point x="69" y="73"/>
      <point x="38" y="73" type="curve" smooth="yes"/>
      <point x="28" y="73" type="line"/>
      <point x="28" y="0" type="line"/>
      <point x="374" y="0" type="line"/>
      <point x="374" y="73" type="line"/>
      <point x="363" y="73" type="line" smooth="yes"/>
      <point x="332" y="73"/>
      <point x="310" y="80"/>
      <point x="310" y="109" type="curve" smooth="yes"/>
      <point x="310" y="601" type="line" smooth="yes"/>
      <point x="310" y="630"/>
      <point x="332" y="637"/>
      <point x="363" y="637" type="curve" smooth="yes"/>
      <point x="374" y="637" type="line"/>
      <point x="374" y="710" type="line"/>
      <point x="28" y="710" type="line"/>
      <point x="28" y="637" type="line"/>
      <point x="38" y="637" type="line" smooth="yes"/>
      <point x="69" y="637"/>
      <point x="92" y="630"/>
      <point x="92" y="601" type="curve" smooth="yes"/>
    </contour>
  </outline>
</glyph>
<glyph name="J" format="2">
  <advance width="616"/>
  <unicode hex="004A"/>
  <anchor x="371.75" y="741.0" name="top"/>
  <outline>
    <contour>
      <point x="231" y="710" type="line"/>
      <point x="231" y="637" type="line"/>
      <point x="250" y="637" type="line" smooth="yes"/>
      <point x="284" y="637"/>
      <point x="309" y="630"/>
      <point x="309" y="601" type="curve" smooth="yes"/>
      <point x="309" y="228" type="line" smooth="yes"/>
      <point x="309" y="110"/>
      <point x="279" y="80"/>
      <point x="224" y="80" type="curve" smooth="yes"/>
      <point x="202" y="80"/>
      <point x="185" y="86"/>
      <point x="171" y="94" type="curve"/>
      <point x="171" y="220" type="line"/>
      <point x="16" y="220" type="line"/>
      <point x="16" y="64" type="line"/>
      <point x="60" y="27"/>
      <point x="134" y="-10"/>
      <point x="252" y="-10" type="curve" smooth="yes"/>
      <point x="412" y="-10"/>
      <point x="527" y="47"/>
      <point x="527" y="232" type="curve" smooth="yes"/>
      <point x="527" y="601" type="line" smooth="yes"/>
      <point x="527" y="630"/>
      <point x="549" y="637"/>
      <point x="580" y="637" type="curve" smooth="yes"/>
      <point x="590" y="637" type="line"/>
      <point x="590" y="710" type="line"/>
    </contour>
  </outline>
</glyph>
<glyph name="K" format="2">
  <advance width="801"/>
  <unicode hex="004B"/>
  <anchor x="375.0" y="741.0" name="top"/>
  <anchor x="375.0" y="0.0" name="bottom"/>
  <outline>
    <contour>
      <point x="28" y="0" type="line"/>
      <point x="368" y="0" type="line"/>
      <point x="368" y="73" type="line"/>
      <point x="359" y="73" type="line" smooth="yes"/>
      <point x="336" y="73"/>
      <point x="310" y="76"/>
      <point x="310" y="83" type="curve" smooth="yes"/>
      <point x="310" y="627" type="line" smooth="yes"/>
      <point x="310" y="634"/>
      <point x="344" y="637"/>
      <point x="376" y="637" type="curve" smooth="yes"/>
      <point x="387" y="637" type="line"/>
      <point x="387" y="710" type="line"/>
      <point x="28" y="710" type="line"/>
      <point x="28" y="637" type="line"/>
      <point x="38" y="637" type="line" smooth="yes"/>
      <point x="69" y="637"/>
      <point x="92" y="630"/>
      <point x="92" y="601" type="curve" smooth="yes"/>
      <point x="92" y="109" type="line" smooth="yes"/>
      <point x="92" y="80"/>
      <point x="69" y="73"/>
      <point x="38" y="73" type="curve" smooth="yes"/>
      <point x="28" y="73" type="line"/>
    </contour>
    <contour>
      <point x="430" y="0" type="line"/>
      <point x="786" y="0" type="line"/>
      <point x="786" y="73" type="line"/>
      <point x="776" y="73" type="line" smooth="yes"/>
      <point x="748" y="73"/>
      <point x="735" y="81"/>
      <point x="719" y="106" type="curve" smooth="yes"/>
      <point x="513" y="439" type="line"/>
      <point x="652" y="601" type="line" smooth="yes"/>
      <point x="677" y="630"/>
      <point x="694" y="637"/>
      <point x="727" y="637" type="curve" smooth="yes"/>
      <point x="747" y="637" type="line"/>
      <point x="747" y="710" type="line"/>
      <point x="484" y="710" type="line"/>
      <point x="484" y="637" type="line"/>
      <point x="494" y="637" type="line" smooth="yes"/>
      <point x="524" y="637"/>
      <point x="565" y="635"/>
      <point x="564" y="628" type="curve"/>
      <point x="336" y="363" type="line"/>
      <point x="336" y="334" type="line"/>
      <point x="488" y="83" type="line"/>
      <point x="488" y="76"/>
      <point x="462" y="73"/>
      <point x="439" y="73" type="curve" smooth="yes"/>
      <point x="430" y="73" type="line"/>
    </contour>
  </outline>
</glyph>
<glyph name="L" format="2">
  <advance width="643"/>
  <unicode hex="004C"/>
  <anchor x="379.0" y="741.0" name="top"/>
  <anchor x="471.0" y="710.0" name="right"/>
  <anchor x="473.0" y="410.0" name="mid"/>
  <anchor x="379.0" y="0.0" name="bottom"/>
  <outline>
    <contour>
      <point x="381" y="710" type="line"/>
      <point x="28" y="710" type="line"/>
      <point x="28" y="637" type="line"/>
      <point x="38" y="637" type="line" smooth="yes"/>
      <point x="69" y="637"/>
      <point x="92" y="630"/>
      <point x="92" y="601" type="curve" smooth="yes"/>
      <point x="92" y="109" type="line" smooth="yes"/>
      <point x="92" y="80"/>
      <point x="69" y="73"/>
      <point x="38" y="73" type="curve" smooth="yes"/>
      <point x="28" y="73" type="line"/>
      <point x="28" y="0" type="line"/>
      <point x="615" y="0" type="line"/>
      <point x="615" y="243" type="line"/>
      <point x="518" y="243" type="line"/>
      <point x="508" y="127" type="line" smooth="yes"/>
      <point x="505" y="91"/>
      <point x="472" y="84"/>
      <point x="394" y="84" type="curve" smooth="yes"/>
      <point x="310" y="84" type="line"/>
      <point x="310" y="601" type="line" smooth="yes"/>
      <point x="310" y="630"/>
      <point x="333" y="637"/>
      <point x="366" y="637" type="curve" smooth="yes"/>
      <point x="381" y="637" type="line"/>
    </contour>
  </outline>
</glyph>
<glyph name="N" format="2">
  <advance width="762"/>
  <unicode hex="004E"/>
  <outline>
    <contour>
      <point x="28" y="0" type="line"/>
      <point x="256" y="0" type="line"/>
      <point x="256" y="73" type="line"/>
      <point x="243" y="73" type="line" smooth="yes"/>
      <point x="213" y="73"/>
      <point x="182" y="81"/>
      <point x="182" y="88" type="curve"/>
      <point x="182" y="606" type="line"/>
      <point x="465" y="0" type="line"/>
      <point x="673" y="0" type="line"/>
      <point x="673" y="600" type="line" smooth="yes"/>
      <point x="673" y="628"/>
      <point x="695" y="637"/>
      <point x="726" y="637" type="curve" smooth="yes"/>
      <point x="737" y="637" type="line"/>
      <point x="737" y="710" type="line"/>
      <point x="509" y="710" type="line"/>
      <point x="509" y="637" type="line"/>
      <point x="521" y="637" type="line" smooth="yes"/>
      <point x="551" y="637"/>
      <point x="582" y="629"/>
      <point x="582" y="622" type="curve" smooth="yes"/>
      <point x="582" y="231" type="line"/>
      <point x="366" y="710" type="line"/>
      <point x="28" y="710" type="line"/>
      <point x="28" y="637" type="line"/>
      <point x="38" y="637" type="line" smooth="yes"/>
      <point x="69" y="637"/>
      <point x="92" y="630"/>
      <point x="92" y="601" type="curve" smooth="yes"/>
      <point x="92" y="114" type="line" smooth="yes"/>
      <point x="92" y="85"/>
      <point x="69" y="73"/>
      <point x="38" y="73" type="curve" smooth="yes"/>
      <point x="28" y="73" type="line"/>
    </contour>
  </outline>
</glyph>
<glyph name="O" format="2">
  <advance width="809"/>
  <unicode hex="004F"/>
  <outline>
    <contour>
      <point x="404" y="-10" type="curve" smooth="yes"/>
      <point x="622" y="-10"/>
      <point x="776" y="134"/>
      <point x="776" y="355" type="curve" smooth="yes"/>
      <point x="776" y="575"/>
      <point x="622" y="720"/>
      <point x="404" y="720" type="curve" smooth="yes"/>
      <point x="187" y="720"/>
      <point x="33" y="575"/>
      <point x="33" y="355" type="curve" smooth="yes"/>
      <point x="33" y="134"/>
      <point x="187" y="-10"/>
    </contour>
    <contour>
      <point x="404" y="80" type="curve" smooth="yes"/>
      <point x="317" y="80"/>
      <point x="260" y="176"/>
      <point x="260" y="355" type="curve" smooth="yes"/>
      <point x="260" y="534"/>
      <point x="317" y="630"/>
      <point x="404" y="630" type="curve" smooth="yes"/>
      <point x="492" y="630"/>
      <point x="549" y="534"/>
      <point x="549" y="355" type="curve" smooth="yes"/>
      <point x="549" y="176"/>
      <point x="492" y="80"/>
    </contour>
  </outline>
</glyph>
<glyph name="P" format="2">
  <advance width="704"/>
  <unicode hex="0050"/>
  <outline>
    <contour>
      <point x="310" y="83" type="curve" smooth="yes"/>
      <point x="310" y="270" type="line"/>
      <point x="404" y="270" type="line" smooth="yes"/>
      <point x="580" y="270"/>
      <point x="689" y="356"/>
      <point x="689" y="496" type="curve" smooth="yes"/>
      <point x="689" y="632"/>
      <point x="587" y="710"/>
      <point x="410" y="710" type="curve" smooth="yes"/>
      <point x="28" y="710" type="line"/>
      <point x="28" y="637" type="line"/>
      <point x="39" y="637" type="line" smooth="yes"/>
      <point x="70" y="637"/>
      <point x="92" y="630"/>
      <point x="92" y="601" type="curve" smooth="yes"/>
      <point x="92" y="109" type="line" smooth="yes"/>
      <point x="92" y="80"/>
      <point x="70" y="73"/>
      <point x="39" y="73" type="curve" smooth="yes"/>
      <point x="28" y="73" type="line"/>
      <point x="28" y="0" type="line"/>
      <point x="384" y="0" type="line"/>
      <point x="384" y="73" type="line"/>
      <point x="360" y="73" type="line" smooth="yes"/>
      <point x="338" y="73"/>
      <point x="310" y="76"/>
    </contour>
    <contour>
      <point x="310" y="626" type="line"/>
      <point x="360" y="626" type="line" smooth="yes"/>
      <point x="430" y="626"/>
      <point x="474" y="584"/>
      <point x="474" y="492" type="curve" smooth="yes"/>
      <point x="474" y="400"/>
      <point x="430" y="354"/>
      <point x="356" y="354" type="curve" smooth="yes"/>
      <point x="310" y="354" type="line"/>
    </contour>
  </outline>
</glyph>
<glyph name="Q" format="2">
  <advance width="809"/>
  <unicode hex="0051"/>
  <outline>
    <contour>
      <point x="745" y="-192" type="curve"/>
      <point x="745" y="-37" type="line"/>
      <point x="711" y="-50"/>
      <point x="650" y="-75"/>
      <point x="575" y="-75" type="curve" smooth="yes"/>
      <point x="507" y="-75"/>
      <point x="462" y="-60"/>
      <point x="457" y="-7" type="curve"/>
      <point x="646" y="15"/>
      <point x="776" y="153"/>
      <point x="776" y="355" type="curve" smooth="yes"/>
      <point x="776" y="575"/>
      <point x="622" y="720"/>
      <point x="404" y="720" type="curve" smooth="yes"/>
      <point x="188" y="720"/>
      <point x="33" y="575"/>
      <point x="33" y="355" type="curve" smooth="yes"/>
      <point x="33" y="152"/>
      <point x="164" y="13"/>
      <point x="354" y="-7" type="curve"/>
      <point x="356" y="-163"/>
      <point x="440" y="-224"/>
      <point x="596" y="-224" type="curve" smooth="yes"/>
      <point x="653" y="-224"/>
      <point x="709" y="-210"/>
    </contour>
    <contour>
      <point x="404" y="80" type="curve" smooth="yes"/>
      <point x="317" y="80"/>
      <point x="260" y="176"/>
      <point x="260" y="355" type="curve" smooth="yes"/>
      <point x="260" y="534"/>
      <point x="317" y="630"/>
      <point x="404" y="630" type="curve" smooth="yes"/>
      <point x="492" y="630"/>
      <point x="549" y="534"/>
      <point x="549" y="355" type="curve" smooth="yes"/>
      <point x="549" y="176"/>
      <point x="492" y="80"/>
    </contour>
  </outline>
</glyph>
<glyph name="R" format="2">
  <advance width="755"/>
  <unicode hex="0052"/>
  <anchor x="389.0" y="741.0" name="top"/>
  <anchor x="389.0" y="0.0" name="bottom"/>
  <outline>
    <contour>
      <point x="310" y="83" type="curve" smooth="yes"/>
      <point x="310" y="287" type="line"/>
      <point x="374" y="287" type="line"/>
      <point x="494" y="0" type="line"/>
      <point x="736" y="0" type="line"/>
      <point x="736" y="73" type="line"/>
      <point x="728" y="73" type="line" smooth="yes"/>
      <point x="707" y="73"/>
      <point x="694" y="79"/>
      <point x="683" y="101" type="curve" smooth="yes"/>
      <point x="574" y="323" type="line"/>
      <point x="649" y="360"/>
      <point x="688" y="423"/>
      <point x="688" y="505" type="curve" smooth="yes"/>
      <point x="688" y="630"/>
      <point x="589" y="710"/>
      <point x="410" y="710" type="curve" smooth="yes"/>
      <point x="28" y="710" type="line"/>
      <point x="28" y="637" type="line"/>
      <point x="38" y="637" type="line" smooth="yes"/>
      <point x="69" y="637"/>
      <point x="92" y="630"/>
      <point x="92" y="601" type="curve" smooth="yes"/>
      <point x="92" y="109" type="line" smooth="yes"/>
      <point x="92" y="80"/>
      <point x="69" y="73"/>
      <point x="38" y="73" type="curve" smooth="yes"/>
      <point x="28" y="73" type="line"/>
      <point x="28" y="0" type="line"/>
      <point x="366" y="0" type="line"/>
      <point x="366" y="73" type="line"/>
      <point x="356" y="73" type="line" smooth="yes"/>
      <point x="334" y="73"/>
      <point x="310" y="76"/>
    </contour>
    <contour>
      <point x="310" y="628" type="line"/>
      <point x="368" y="628" type="line" smooth="yes"/>
      <point x="432" y="628"/>
      <point x="465" y="581"/>
      <point x="465" y="505" type="curve" smooth="yes"/>
      <point x="465" y="420"/>
      <point x="433" y="368"/>
      <point x="364" y="368" type="curve" smooth="yes"/>
      <point x="310" y="368" type="line"/>
    </contour>
  </outline>
</glyph>
<glyph name="T" format="2">
  <advance width="736"/>
  <unicode hex="0054"/>
  <anchor x="339.0" y="741.0" name="top"/>
  <anchor x="339.0" y="0.0" name="bottom"/>
  <outline>
    <contour>
      <point x="259" y="109" type="line" smooth="yes"/>
      <point x="259" y="80"/>
      <point x="237" y="73"/>
      <point x="206" y="73" type="curve" smooth="yes"/>
      <point x="192" y="73" type="line"/>
      <point x="192" y="0" type="line"/>
      <point x="544" y="0" type="line"/>
      <point x="544" y="73" type="line"/>
      <point x="530" y="73" type="line" smooth="yes"/>
      <point x="499" y="73"/>
      <point x="477" y="80"/>
      <point x="477" y="109" type="curve" smooth="yes"/>
      <point x="477" y="626" type="line"/>
      <point x="498" y="626" type="line" smooth="yes"/>
      <point x="570" y="626"/>
      <point x="601" y="619"/>
      <point x="603" y="583" type="curve" smooth="yes"/>
      <point x="611" y="472" type="line"/>
      <point x="708" y="472" type="line"/>
      <point x="708" y="710" type="line"/>
      <point x="27" y="710" type="line"/>
      <point x="27" y="472" type="line"/>
      <point x="124" y="472" type="line"/>
      <point x="133" y="583" type="line" smooth="yes"/>
      <point x="135" y="619"/>
      <point x="166" y="626"/>
      <point x="238" y="626" type="curve" smooth="yes"/>
      <point x="259" y="626" type="line"/>
    </contour>
  </outline>
</glyph>
<glyph name="U" format="2">
  <advance width="759"/>
  <unicode hex="0055"/>
  <anchor x="408.0" y="741.0" name="top"/>
  <anchor x="463.0" y="0.0" name="right"/>
  <anchor x="408.0" y="0.0" name="bottom"/>
  <outline>
    <contour>
      <point x="308" y="278" type="curve" smooth="yes"/>
      <point x="308" y="627" type="line" smooth="yes"/>
      <point x="308" y="634"/>
      <point x="338" y="637"/>
      <point x="362" y="637" type="curve" smooth="yes"/>
      <point x="371" y="637" type="line"/>
      <point x="371" y="710" type="line"/>
      <point x="26" y="710" type="line"/>
      <point x="26" y="637" type="line"/>
      <point x="36" y="637" type="line" smooth="yes"/>
      <point x="67" y="637"/>
      <point x="90" y="630"/>
      <point x="90" y="601" type="curve" smooth="yes"/>
      <point x="90" y="278" type="line" smooth="yes"/>
      <point x="90" y="76"/>
      <point x="208" y="-10"/>
      <point x="391" y="-10" type="curve" smooth="yes"/>
      <point x="548" y="-10"/>
      <point x="670" y="73"/>
      <point x="670" y="278" type="curve" smooth="yes"/>
      <point x="670" y="598" type="line" smooth="yes"/>
      <point x="670" y="628"/>
      <point x="692" y="637"/>
      <point x="723" y="637" type="curve" smooth="yes"/>
      <point x="733" y="637" type="line"/>
      <point x="733" y="710" type="line"/>
      <point x="516" y="710" type="line"/>
      <point x="516" y="637" type="line"/>
      <point x="524" y="637" type="line" smooth="yes"/>
      <point x="549" y="637"/>
      <point x="579" y="630"/>
      <point x="579" y="616" type="curve" smooth="yes"/>
      <point x="579" y="278" type="line" smooth="yes"/>
      <point x="579" y="144"/>
      <point x="526" y="91"/>
      <point x="443" y="91" type="curve" smooth="yes"/>
      <point x="353" y="91"/>
      <point x="308" y="140"/>
    </contour>
  </outline>
</glyph>
<glyph name="V" format="2">
  <advance width="726"/>
  <unicode hex="0056"/>
  <outline>
    <contour>
      <point x="660" y="594" type="line" smooth="yes"/>
      <point x="671" y="628"/>
      <point x="684" y="637"/>
      <point x="712" y="637" type="curve" smooth="yes"/>
      <point x="716" y="637" type="line"/>
      <point x="716" y="710" type="line"/>
      <point x="510" y="710" type="line"/>
      <point x="510" y="637" type="line"/>
      <point x="524" y="637" type="line" smooth="yes"/>
      <point x="548" y="637"/>
      <point x="576" y="630"/>
      <point x="576" y="619" type="curve"/>
      <point x="430" y="153" type="line"/>
      <point x="284" y="627" type="line"/>
      <point x="284" y="634"/>
      <point x="313" y="637"/>
      <point x="336" y="637" type="curve" smooth="yes"/>
      <point x="353" y="637" type="line"/>
      <point x="353" y="710" type="line"/>
      <point x="10" y="710" type="line"/>
      <point x="10" y="637" type="line"/>
      <point x="14" y="637" type="line" smooth="yes"/>
      <point x="41" y="637"/>
      <point x="57" y="632"/>
      <point x="64" y="609" type="curve" smooth="yes"/>
      <point x="259" y="0" type="line"/>
      <point x="472" y="0" type="line"/>
    </contour>
  </outline>
</glyph>
<glyph name="W" format="2">
  <advance width="1029"/>
  <unicode hex="0057"/>
  <anchor x="534.25" y="741.0" name="top"/>
  <outline>
    <contour>
      <point x="10" y="710" type="line"/>
      <point x="10" y="637" type="line"/>
      <point x="16" y="637" type="line" smooth="yes"/>
      <point x="42" y="637"/>
      <point x="60" y="632"/>
      <point x="66" y="606" type="curve" smooth="yes"/>
      <point x="193" y="0" type="line"/>
      <point x="412" y="0" type="line"/>
      <point x="527" y="533" type="line"/>
      <point x="634" y="0" type="line"/>
      <point x="842" y="0" type="line"/>
      <point x="963" y="594" type="line" smooth="yes"/>
      <point x="970" y="627"/>
      <point x="987" y="637"/>
      <point x="1014" y="637" type="curve" smooth="yes"/>
      <point x="1019" y="637" type="line"/>
      <point x="1019" y="710" type="line"/>
      <point x="817" y="710" type="line"/>
      <point x="817" y="637" type="line"/>
      <point x="832" y="637" type="line" smooth="yes"/>
      <point x="854" y="637"/>
      <point x="880" y="630"/>
      <point x="880" y="619" type="curve"/>
      <point x="796" y="186" type="line"/>
      <point x="686" y="710" type="line"/>
      <point x="484" y="710" type="line"/>
      <point x="367" y="180" type="line"/>
      <point x="285" y="627" type="line"/>
      <point x="285" y="634"/>
      <point x="312" y="637"/>
      <point x="335" y="637" type="curve" smooth="yes"/>
      <point x="350" y="637" type="line"/>
      <point x="350" y="710" type="line"/>
    </contour>
  </outline>
</glyph>
<glyph name="X" format="2">
  <advance width="736"/>
  <unicode hex="0058"/>
  <outline>
    <contour>
      <point x="13" y="0" type="line"/>
      <point x="226" y="0" type="line"/>
      <point x="226" y="73" type="line"/>
      <point x="214" y="73" type="line" smooth="yes"/>
      <point x="190" y="73"/>
      <point x="160" y="80"/>
      <point x="160" y="91" type="curve"/>
      <point x="293" y="286" type="line"/>
      <point x="426" y="83" type="line"/>
      <point x="426" y="76"/>
      <point x="398" y="73"/>
      <point x="376" y="73" type="curve" smooth="yes"/>
      <point x="361" y="73" type="line"/>
      <point x="361" y="0" type="line"/>
      <point x="723" y="0" type="line"/>
      <point x="723" y="73" type="line"/>
      <point x="714" y="73" type="line" smooth="yes"/>
      <point x="687" y="73"/>
      <point x="676" y="78"/>
      <point x="657" y="107" type="curve"/>
      <point x="481" y="367" type="line"/>
      <point x="626" y="592" type="line" smooth="yes"/>
      <point x="649" y="626"/>
      <point x="664" y="637"/>
      <point x="692" y="637" type="curve" smooth="yes"/>
      <point x="696" y="637" type="line"/>
      <point x="696" y="710" type="line"/>
      <point x="486" y="710" type="line"/>
      <point x="486" y="637" type="line"/>
      <point x="499" y="637" type="line" smooth="yes"/>
      <point x="523" y="637"/>
      <point x="550" y="630"/>
      <point x="550" y="619" type="curve"/>
      <point x="433" y="434" type="line"/>
      <point x="311" y="627" type="line"/>
      <point x="311" y="634"/>
      <point x="339" y="637"/>
      <point x="361" y="637" type="curve" smooth="yes"/>
      <point x="376" y="637" type="line"/>
      <point x="376" y="710" type="line"/>
      <point x="20" y="710" type="line"/>
      <point x="20" y="637" type="line"/>
      <point x="25" y="637" type="line" smooth="yes"/>
      <point x="51" y="637"/>
      <point x="62" y="633"/>
      <point x="80" y="605" type="curve"/>
      <point x="245" y="353" type="line"/>
      <point x="84" y="119" type="line" smooth="yes"/>
      <point x="61" y="85"/>
      <point x="48" y="73"/>
      <point x="22" y="73" type="curve" smooth="yes"/>
      <point x="13" y="73" type="line"/>
    </contour>
  </outline>
</glyph>
<glyph name="Y" format="2">
  <advance width="696"/>
  <unicode hex="0059"/>
  <anchor x="345.0" y="741.0" name="top"/>
  <anchor x="345.0" y="0.0" name="bottom"/>
  <outline>
    <contour>
      <point x="526" y="73" type="line"/>
      <point x="512" y="73" type="line" smooth="yes"/>
      <point x="482" y="73"/>
      <point x="459" y="80"/>
      <point x="459" y="109" type="curve" smooth="yes"/>
      <point x="459" y="296" type="line"/>
      <point x="622" y="596" type="line" smooth="yes"/>
      <point x="640" y="630"/>
      <point x="659" y="637"/>
      <point x="683" y="637" type="curve" smooth="yes"/>
      <point x="688" y="637" type="line"/>
      <point x="688" y="710" type="line"/>
      <point x="472" y="710" type="line"/>
      <point x="472" y="637" type="line"/>
      <point x="484" y="637" type="line" smooth="yes"/>
      <point x="512" y="637"/>
      <point x="540" y="630"/>
      <point x="540" y="619" type="curve"/>
      <point x="415" y="386" type="line"/>
      <point x="282" y="627" type="line"/>
      <point x="282" y="634"/>
      <point x="308" y="637"/>
      <point x="334" y="637" type="curve" smooth="yes"/>
      <point x="350" y="637" type="line"/>
      <point x="350" y="710" type="line"/>
      <point x="9" y="710" type="line"/>
      <point x="9" y="637" type="line"/>
      <point x="14" y="637" type="line" smooth="yes"/>
      <point x="38" y="637"/>
      <point x="52" y="637"/>
      <point x="67" y="611" type="curve" smooth="yes"/>
      <point x="241" y="302" type="line"/>
      <point x="241" y="109" type="line" smooth="yes"/>
      <point x="241" y="80"/>
      <point x="218" y="73"/>
      <point x="188" y="73" type="curve" smooth="yes"/>
      <point x="174" y="73" type="line"/>
      <point x="174" y="0" type="line"/>
      <point x="526" y="0" type="line"/>
    </contour>
  </outline>
</glyph>
<glyph name="Z" format="2">
  <advance width="638"/>
  <unicode hex="005A"/>
  <anchor x="329.0" y="741.0" name="top"/>
  <anchor x="329.0" y="0.0" name="bottom"/>
  <outline>
    <contour>
      <point x="614" y="236" type="line"/>
      <point x="518" y="236" type="line"/>
      <point x="507" y="128" type="line" smooth="yes"/>
      <point x="504" y="92"/>
      <point x="473" y="84"/>
      <point x="394" y="84" type="curve" smooth="yes"/>
      <point x="244" y="84" type="line"/>
      <point x="600" y="607" type="line"/>
      <point x="600" y="710" type="line"/>
      <point x="44" y="710" type="line"/>
      <point x="44" y="496" type="line"/>
      <point x="139" y="496" type="line"/>
      <point x="145" y="582" type="line" smooth="yes"/>
      <point x="147" y="618"/>
      <point x="183" y="626"/>
      <point x="242" y="626" type="curve" smooth="yes"/>
      <point x="377" y="626" type="line"/>
      <point x="24" y="107" type="line"/>
      <point x="24" y="0" type="line"/>
      <point x="614" y="0" type="line"/>
    </contour>
  </outline>
</glyph>
<glyph name="i" format="2">
  <advance width="336"/>
  <unicode hex="0069"/>
  <anchor x="169.0" y="551.0" name="top"/>
  <anchor x="215.0" y="-10.0" name="right"/>
  <anchor x="167.0" y="-10.0" name="bottom"/>
  <outline>
    <contour>
      <point x="169" y="572" type="curve" smooth="yes"/>
      <point x="237" y="572"/>
      <point x="277" y="604"/>
      <point x="277" y="660" type="curve" smooth="yes"/>
      <point x="277" y="715"/>
      <point x="237" y="748"/>
      <point x="169" y="748" type="curve" smooth="yes"/>
      <point x="102" y="748"/>
      <point x="61" y="715"/>
      <point x="61" y="660" type="curve" smooth="yes"/>
      <point x="61" y="604"/>
      <point x="102" y="572"/>
    </contour>
    <contour>
      <point x="274" y="512" type="line"/>
      <point x="22" y="512" type="line"/>
      <point x="22" y="441" type="line"/>
      <point x="30" y="439" type="line" smooth="yes"/>
      <point x="57" y="432"/>
      <point x="68" y="428"/>
      <point x="68" y="408" type="curve" smooth="yes"/>
      <point x="68" y="97" type="line" smooth="yes"/>
      <point x="68" y="74"/>
      <point x="48" y="68"/>
      <point x="23" y="68" type="curve" smooth="yes"/>
      <point x="22" y="68" type="line"/>
      <point x="22" y="0" type="line"/>
      <point x="321" y="0" type="line"/>
      <point x="321" y="68" type="line"/>
      <point x="320" y="68" type="line" smooth="yes"/>
      <point x="294" y="68"/>
      <point x="274" y="74"/>
      <point x="274" y="97" type="curve" smooth="yes"/>
    </contour>
  </outline>
</glyph>
<glyph name="j" format="2">
  <advance width="318"/>
  <unicode hex="006A"/>
  <anchor x="159.0" y="551.0" name="top"/>
  <outline>
    <contour>
      <point x="164" y="572" type="curve" smooth="yes"/>
      <point x="231" y="572"/>
      <point x="272" y="604"/>
      <point x="272" y="660" type="curve" smooth="yes"/>
      <point x="272" y="715"/>
      <point x="231" y="748"/>
      <point x="164" y="748" type="curve" smooth="yes"/>
      <point x="96" y="748"/>
      <point x="56" y="715"/>
      <point x="56" y="660" type="curve" smooth="yes"/>
      <point x="56" y="604"/>
      <point x="96" y="572"/>
    </contour>
    <contour>
      <point x="64" y="-29" type="line" smooth="yes"/>
      <point x="64" y="-120"/>
      <point x="38" y="-149"/>
      <point x="-10" y="-149" type="curve" smooth="yes"/>
      <point x="-40" y="-149"/>
      <point x="-64" y="-140"/>
      <point x="-84" y="-132" type="curve"/>
      <point x="-84" y="-221" type="line"/>
      <point x="-69" y="-228"/>
      <point x="-24" y="-236"/>
      <point x="28" y="-236" type="curve" smooth="yes"/>
      <point x="186" y="-236"/>
      <point x="269" y="-175"/>
      <point x="269" y="-5" type="curve" smooth="yes"/>
      <point x="269" y="512" type="line"/>
      <point x="7" y="512" type="line"/>
      <point x="7" y="441" type="line"/>
      <point x="16" y="439" type="line" smooth="yes"/>
      <point x="45" y="433"/>
      <point x="64" y="428"/>
      <point x="64" y="408" type="curve" smooth="yes"/>
    </contour>
  </outline>
</glyph>
<glyph name="k" format="2">
  <advance width="704"/>
  <unicode hex="006B"/>
  <anchor x="321.0" y="0.0" name="bottom"/>
  <outline>
    <contour>
      <point x="274" y="735" type="line"/>
      <point x="22" y="735" type="line"/>
      <point x="22" y="664" type="line"/>
      <point x="30" y="662" type="line" smooth="yes"/>
      <point x="57" y="655"/>
      <point x="68" y="650"/>
      <point x="68" y="631" type="curve" smooth="yes"/>
      <point x="68" y="97" type="line" smooth="yes"/>
      <point x="68" y="74"/>
      <point x="48" y="68"/>
      <point x="23" y="68" type="curve" smooth="yes"/>
      <point x="22" y="68" type="line"/>
      <point x="22" y="0" type="line"/>
      <point x="316" y="0" type="line"/>
      <point x="316" y="68" type="line"/>
      <point x="312" y="68" type="line" smooth="yes"/>
      <point x="298" y="68"/>
      <point x="274" y="70"/>
      <point x="274" y="77" type="curve" smooth="yes"/>
    </contour>
    <contour>
      <point x="690" y="0" type="line"/>
      <point x="690" y="68" type="line"/>
      <point x="688" y="68" type="line" smooth="yes"/>
      <point x="659" y="68"/>
      <point x="634" y="76"/>
      <point x="616" y="101" type="curve" smooth="yes"/>
      <point x="464" y="327" type="line"/>
      <point x="551" y="404" type="line" smooth="yes"/>
      <point x="577" y="427"/>
      <point x="608" y="444"/>
      <point x="648" y="444" type="curve" smooth="yes"/>
      <point x="650" y="444" type="line"/>
      <point x="650" y="512" type="line"/>
      <point x="388" y="512" type="line"/>
      <point x="388" y="444" type="line"/>
      <point x="395" y="444" type="line" smooth="yes"/>
      <point x="420" y="444"/>
      <point x="465" y="441"/>
      <point x="465" y="426" type="curve"/>
      <point x="296" y="279" type="line"/>
      <point x="296" y="252" type="line"/>
      <point x="404" y="77" type="line"/>
      <point x="404" y="70"/>
      <point x="381" y="68"/>
      <point x="366" y="68" type="curve" smooth="yes"/>
      <point x="363" y="68" type="line"/>
      <point x="363" y="0" type="line"/>
    </contour>
  </outline>
</glyph>
<glyph name="l" format="2">
  <advance width="333"/>
  <unicode hex="006C"/>
  <anchor x="162.0" y="742.25" name="top"/>
  <anchor x="269.0" y="731.25" name="right"/>
  <anchor x="325.0" y="391.0" name="mid"/>
  <anchor x="165.0" y="0.0" name="bottom"/>
  <outline>
    <contour>
      <point x="273" y="735" type="line"/>
      <point x="20" y="735" type="line"/>
      <point x="20" y="664" type="line"/>
      <point x="28" y="662" type="line" smooth="yes"/>
      <point x="56" y="655"/>
      <point x="67" y="650"/>
      <point x="67" y="631" type="curve" smooth="yes"/>
      <point x="67" y="97" type="line" smooth="yes"/>
      <point x="67" y="74"/>
      <point x="47" y="68"/>
      <point x="22" y="68" type="curve" smooth="yes"/>
      <point x="20" y="68" type="line"/>
      <point x="20" y="0" type="line"/>
      <point x="320" y="0" type="line"/>
      <point x="320" y="68" type="line"/>
      <point x="318" y="68" type="line" smooth="yes"/>
      <point x="293" y="68"/>
      <point x="273" y="74"/>
      <point x="273" y="97" type="curve" smooth="yes"/>
    </contour>
  </outline>
</glyph>
<glyph name="p" format="2">
  <advance width="682"/>
  <unicode hex="0070"/>
  <outline>
    <contour>
      <point x="340" y="-223" type="line"/>
      <point x="340" y="-155" type="line"/>
      <point x="332" y="-155" type="line" smooth="yes"/>
      <point x="308" y="-155"/>
      <point x="273" y="-152"/>
      <point x="273" y="-146" type="curve" smooth="yes"/>
      <point x="273" y="39" type="line"/>
      <point x="310" y="5"/>
      <point x="354" y="-10"/>
      <point x="416" y="-10" type="curve" smooth="yes"/>
      <point x="554" y="-10"/>
      <point x="651" y="103"/>
      <point x="651" y="262" type="curve" smooth="yes"/>
      <point x="651" y="418"/>
      <point x="562" y="522"/>
      <point x="423" y="522" type="curve" smooth="yes"/>
      <point x="348" y="522"/>
      <point x="303" y="490"/>
      <point x="260" y="427" type="curve"/>
      <point x="260" y="512" type="line"/>
      <point x="20" y="512" type="line"/>
      <point x="20" y="441" type="line"/>
      <point x="28" y="439" type="line" smooth="yes"/>
      <point x="56" y="432"/>
      <point x="67" y="428"/>
      <point x="67" y="408" type="curve" smooth="yes"/>
      <point x="67" y="-126" type="line" smooth="yes"/>
      <point x="67" y="-148"/>
      <point x="47" y="-155"/>
      <point x="22" y="-155" type="curve" smooth="yes"/>
      <point x="20" y="-155" type="line"/>
      <point x="20" y="-223" type="line"/>
    </contour>
    <contour>
      <point x="362" y="422" type="curve" smooth="yes"/>
      <point x="415" y="422"/>
      <point x="440" y="366"/>
      <point x="440" y="262" type="curve" smooth="yes"/>
      <point x="440" y="157"/>
      <point x="414" y="90"/>
      <point x="355" y="90" type="curve" smooth="yes"/>
      <point x="317" y="90"/>
      <point x="293" y="114"/>
      <point x="273" y="152" type="curve"/>
      <point x="273" y="346" type="line"/>
      <point x="297" y="394"/>
      <point x="324" y="422"/>
    </contour>
  </outline>
</glyph>
<glyph name="t" format="2">
  <advance width="414"/>
  <unicode hex="0074"/>
  <anchor x="156.0" y="675.0" name="top"/>
  <anchor x="292.0" y="681.0" name="right"/>
  <anchor x="244.0" y="0.0" name="bottom"/>
  <outline>
    <contour>
      <point x="270" y="181" type="curve" smooth="yes"/>
      <point x="270" y="434" type="line"/>
      <point x="395" y="434" type="line"/>
      <point x="395" y="512" type="line"/>
      <point x="270" y="512" type="line"/>
      <point x="270" y="652" type="line"/>
      <point x="70" y="652" type="line"/>
      <point x="70" y="548" type="line"/>
      <point x="70" y="515"/>
      <point x="44" y="508"/>
      <point x="5" y="508" type="curve" smooth="yes"/>
      <point x="2" y="508" type="line"/>
      <point x="2" y="434" type="line"/>
      <point x="64" y="434" type="line"/>
      <point x="64" y="174" type="line" smooth="yes"/>
      <point x="64" y="36"/>
      <point x="155" y="-10"/>
      <point x="281" y="-10" type="curve" smooth="yes"/>
      <point x="339" y="-10"/>
      <point x="382" y="1"/>
      <point x="398" y="9" type="curve"/>
      <point x="398" y="93" type="line"/>
      <point x="388" y="90"/>
      <point x="363" y="82"/>
      <point x="338" y="82" type="curve" smooth="yes"/>
      <point x="294" y="82"/>
      <point x="270" y="104"/>
    </contour>
  </outline>
</glyph>
<glyph name="v" format="2">
  <advance width="598"/>
  <unicode hex="0076"/>
  <outline>
    <contour>
      <point x="458" y="424" type="curve"/>
      <point x="359" y="128" type="line"/>
      <point x="259" y="436" type="line"/>
      <point x="259" y="443"/>
      <point x="290" y="445"/>
      <point x="319" y="445" type="curve" smooth="yes"/>
      <point x="321" y="445" type="line"/>
      <point x="321" y="512" type="line"/>
      <point x="7" y="512" type="line"/>
      <point x="7" y="445" type="line"/>
      <point x="8" y="445" type="line" smooth="yes"/>
      <point x="36" y="445"/>
      <point x="50" y="437"/>
      <point x="59" y="411" type="curve" smooth="yes"/>
      <point x="200" y="0" type="line"/>
      <point x="402" y="0" type="line"/>
      <point x="540" y="403" type="line" smooth="yes"/>
      <point x="550" y="436"/>
      <point x="569" y="445"/>
      <point x="590" y="445" type="curve" smooth="yes"/>
      <point x="591" y="445" type="line"/>
      <point x="591" y="512" type="line"/>
      <point x="400" y="512" type="line"/>
      <point x="400" y="445" type="line"/>
      <point x="402" y="445" type="line" smooth="yes"/>
      <point x="428" y="445"/>
      <point x="457" y="436"/>
    </contour>
  </outline>
</glyph>
<glyph name="w" format="2">
  <advance width="868"/>
  <unicode hex="0077"/>
  <anchor x="425.0" y="551.0" name="top"/>
  <outline>
    <contour>
      <point x="510" y="0" type="line"/>
      <point x="708" y="0" type="line"/>
      <point x="809" y="403" type="line" smooth="yes"/>
      <point x="816" y="434"/>
      <point x="836" y="445"/>
      <point x="858" y="445" type="curve" smooth="yes"/>
      <point x="860" y="445" type="line"/>
      <point x="860" y="512" type="line"/>
      <point x="671" y="512" type="line"/>
      <point x="671" y="445" type="line"/>
      <point x="672" y="445" type="line" smooth="yes"/>
      <point x="699" y="445"/>
      <point x="725" y="436"/>
      <point x="726" y="424" type="curve"/>
      <point x="661" y="162" type="line"/>
      <point x="574" y="512" type="line"/>
      <point x="410" y="512" type="line"/>
      <point x="322" y="152" type="line"/>
      <point x="258" y="436" type="line"/>
      <point x="258" y="443"/>
      <point x="287" y="445"/>
      <point x="316" y="445" type="curve" smooth="yes"/>
      <point x="317" y="445" type="line"/>
      <point x="317" y="512" type="line"/>
      <point x="7" y="512" type="line"/>
      <point x="7" y="445" type="line"/>
      <point x="9" y="445" type="line" smooth="yes"/>
      <point x="36" y="445"/>
      <point x="52" y="437"/>
      <point x="58" y="412" type="curve" smooth="yes"/>
      <point x="163" y="0" type="line"/>
      <point x="360" y="0" type="line"/>
      <point x="438" y="318" type="line"/>
    </contour>
  </outline>
</glyph>
<glyph name="x" format="2">
  <advance width="594"/>
  <unicode hex="0078"/>
  <outline>
    <contour>
      <point x="10" y="0" type="line"/>
      <point x="199" y="0" type="line"/>
      <point x="199" y="68" type="line"/>
      <point x="198" y="68" type="line"/>
      <point x="174" y="68"/>
      <point x="148" y="76"/>
      <point x="148" y="88" type="curve"/>
      <point x="231" y="191" type="line"/>
      <point x="317" y="76" type="line"/>
      <point x="317" y="70"/>
      <point x="287" y="68"/>
      <point x="262" y="68" type="curve" smooth="yes"/>
      <point x="260" y="68" type="line"/>
      <point x="260" y="0" type="line"/>
      <point x="587" y="0" type="line"/>
      <point x="587" y="68" type="line"/>
      <point x="586" y="68" type="line"/>
      <point x="558" y="68"/>
      <point x="548" y="78"/>
      <point x="531" y="102" type="curve" smooth="yes"/>
      <point x="407" y="268" type="line"/>
      <point x="514" y="400" type="line" smooth="yes"/>
      <point x="538" y="430"/>
      <point x="552" y="445"/>
      <point x="576" y="445" type="curve"/>
      <point x="577" y="445" type="line"/>
      <point x="577" y="512" type="line"/>
      <point x="392" y="512" type="line"/>
      <point x="392" y="445" type="line"/>
      <point x="395" y="445" type="line"/>
      <point x="416" y="445"/>
      <point x="441" y="437"/>
      <point x="441" y="425" type="curve"/>
      <point x="362" y="327" type="line"/>
      <point x="280" y="437" type="line"/>
      <point x="280" y="443"/>
      <point x="308" y="445"/>
      <point x="333" y="445" type="curve" smooth="yes"/>
      <point x="336" y="445" type="line"/>
      <point x="336" y="512" type="line"/>
      <point x="10" y="512" type="line"/>
      <point x="10" y="444" type="line"/>
      <point x="11" y="444" type="line"/>
      <point x="37" y="444"/>
      <point x="46" y="438"/>
      <point x="60" y="418" type="curve" smooth="yes"/>
      <point x="186" y="250" type="line"/>
      <point x="67" y="106" type="line" smooth="yes"/>
      <point x="48" y="81"/>
      <point x="32" y="68"/>
      <point x="11" y="68" type="curve"/>
      <point x="10" y="68" type="line"/>
    </contour>
  </outline>
</glyph>
<glyph name="y" format="2">
  <advance width="607"/>
  <unicode hex="0079"/>
  <anchor x="299.75" y="551.0" name="top"/>
  <anchor x="308.75" y="-211.0" name="bottom"/>
  <outline>
    <contour>
      <point x="376" y="20" type="curve" smooth="yes"/>
      <point x="544" y="399" type="line" smooth="yes"/>
      <point x="558" y="432"/>
      <point x="574" y="444"/>
      <point x="598" y="444" type="curve"/>
      <point x="600" y="444" type="line"/>
      <point x="600" y="512" type="line"/>
      <point x="406" y="512" type="line"/>
      <point x="406" y="444" type="line"/>
      <point x="409" y="444" type="line" smooth="yes"/>
      <point x="437" y="444"/>
      <point x="465" y="435"/>
      <point x="465" y="422" type="curve"/>
      <point x="360" y="183" type="line"/>
      <point x="259" y="435" type="line"/>
      <point x="259" y="442"/>
      <point x="289" y="444"/>
      <point x="318" y="444" type="curve" smooth="yes"/>
      <point x="320" y="444" type="line"/>
      <point x="320" y="512" type="line"/>
      <point x="7" y="512" type="line"/>
      <point x="7" y="444" type="line"/>
      <point x="8" y="444" type="line"/>
      <point x="37" y="444"/>
      <point x="48" y="436"/>
      <point x="60" y="409" type="curve" smooth="yes"/>
      <point x="259" y="-36" type="line"/>
      <point x="230" y="-78"/>
      <point x="196" y="-93"/>
      <point x="150" y="-93" type="curve" smooth="yes"/>
      <point x="100" y="-93"/>
      <point x="52" y="-68"/>
      <point x="44" y="-66" type="curve"/>
      <point x="44" y="-212" type="line"/>
      <point x="58" y="-223"/>
      <point x="88" y="-234"/>
      <point x="128" y="-234" type="curve" smooth="yes"/>
      <point x="225" y="-234"/>
      <point x="295" y="-162"/>
    </contour>
  </outline>
</glyph>
<glyph name="z" format="2">
  <advance width="529"/>
  <unicode hex="007A"/>
  <anchor x="243.75" y="551.0" name="top"/>
  <anchor x="262.75" y="0.0" name="bottom"/>
  <outline>
    <contour>
      <point x="512" y="209" type="line"/>
      <point x="438" y="209" type="line"/>
      <point x="429" y="124" type="line" smooth="yes"/>
      <point x="424" y="86"/>
      <point x="398" y="79"/>
      <point x="332" y="79" type="curve" smooth="yes"/>
      <point x="243" y="79" type="line"/>
      <point x="495" y="414" type="line"/>
      <point x="495" y="512" type="line"/>
      <point x="32" y="512" type="line"/>
      <point x="32" y="321" type="line"/>
      <point x="105" y="321" type="line"/>
      <point x="113" y="392" type="line" smooth="yes"/>
      <point x="117" y="428"/>
      <point x="142" y="434"/>
      <point x="210" y="434" type="curve" smooth="yes"/>
      <point x="282" y="434" type="line"/>
      <point x="26" y="102" type="line"/>
      <point x="26" y="0" type="line"/>
      <point x="512" y="0" type="line"/>
    </contour>
  </outline>
</glyph>
<glyph name="quoteright" format="2">
  <advance width="256"/>
  <unicode hex="2019"/>
  <outline>
    <contour>
      <point x="107" y="350" type="line"/>
      <point x="184" y="424"/>
      <point x="229" y="512"/>
      <point x="229" y="606" type="curve" smooth="yes"/>
      <point x="229" y="681"/>
      <point x="188" y="715"/>
      <point x="128" y="715" type="curve" smooth="yes"/>
      <point x="70" y="715"/>
      <point x="33" y="676"/>
      <point x="33" y="629" type="curve" smooth="yes"/>
      <point x="33" y="580"/>
      <point x="72" y="546"/>
      <point x="128" y="546" type="curve" smooth="yes"/>
      <point x="133" y="546" type="line"/>
      <point x="114" y="495"/>
      <point x="63" y="444"/>
      <point x="3" y="400" type="curve"/>
    </contour>
  </outline>
</glyph>
<glyph name="minus" format="2">
  <advance width="560"/>
  <unicode hex="2212"/>
  <outline>
    <contour>
      <point x="500" y="402" type="line"/>
      <point x="60" y="402" type="line"/>
      <point x="60" y="280" type="line"/>
      <point x="500" y="280" type="line"/>
    </contour>
  </outline>
</glyph>
